<?xml version="1.0" encoding="utf-8"?>
<!-- Generator: Adobe Illustrator 20.1.0, SVG Export Plug-In . SVG Version: 6.00 Build 0)  -->
<svg version="1.1" id="Layer_1" xmlns="http://www.w3.org/2000/svg" xmlns:xlink="http://www.w3.org/1999/xlink" x="0px" y="0px"
	 viewBox="0 0 2970.3 1082.2" style="enable-background:new 0 0 2970.3 1082.2;" xml:space="preserve">
<style type="text/css">
	.st0{fill:#FFFFFF;}
</style>
<title>HomemadeLogo_revised</title>
<path class="st0" d="M857.2,469.7h27.7v92h119.1v-92h27.7v215.7h-27.7v-96.9H884.8v96.9h-27.7V469.7z"/>
<path class="st0" d="M1114.8,577.5c0-62.6,48.6-110.3,110.3-110.3c61.7,0,110.3,47.7,110.3,110.3s-48.6,110.3-110.3,110.3
	C1163.4,687.8,1114.8,640.1,1114.8,577.5z M1307.1,577.5c0-47.4-34.9-83.8-82-83.8s-82,36.5-82,83.8s34.9,83.8,82,83.8
	S1307.1,624.9,1307.1,577.5L1307.1,577.5z"/>
<path class="st0" d="M1418.6,467.2L1523.7,583l105.1-115.8v218.1h-27.7V535.3l-77.5,86.6l-77.5-86.6v150.1h-27.6V467.2z"/>
<path class="st0" d="M1726.7,469.7h124.6v26.7h-96.9v65.3h78.7v26.7h-78.7v70.2h96.9v26.7h-124.5V469.7z"/>
<path class="st0" d="M1937.8,467.2L2042.9,583L2148,467.2v218.1h-27.7V535.3l-77.5,86.6l-77.5-86.6v150.1h-27.6V467.2z"/>
<path class="st0" d="M2327.6,467.2l105.1,218.1h-29.8l-26.7-56.5H2279l-26.7,56.5h-29.8L2327.6,467.2z M2291.1,603.3h72.9
	l-36.4-77.2L2291.1,603.3z"/>
<path class="st0" d="M2507.1,469.7h64.1c66.5,0,115.1,46.2,115.1,107.8s-48.6,107.8-115.1,107.8h-64.1V469.7z M2571.2,659.5
	c52.2,0,86.9-34.9,86.9-82s-34.6-82-86.9-82h-36.5v164H2571.2z"/>
<path class="st0" d="M2769.3,469.7h124.6v26.7h-96.9v65.3h78.7v26.7h-78.7v70.2h96.9v26.7h-124.6V469.7z"/>
<path class="st0" d="M571.8,817.7l23.4-216.3l-0.1-6.1H76.5v24.4H229l20.4,196.8v1.2h1.1v0.2l1.2-0.2h318.7L571.8,817.7z
	 M569.1,619.8l-18.9,174H272.1l-18.9-174H569.1z"/>
<path class="st0" d="M554.5,469.4V325.8h-72v71.6l-70.9-71.5h0.2l-16.8,17h0.1L201.1,536.7h0.2h421.4l-0.3-0.1L554.5,469.4z
	 M506.5,349.8h24v95.6l-24-24V349.8L506.5,349.8z M259.1,512.8l153-153l153,152.9l0.2,0.1H259.1L259.1,512.8z"/>
</svg>
