<?xml version="1.0" encoding="utf-8"?>
<!-- Generator: Adobe Illustrator 16.0.0, SVG Export Plug-In . SVG Version: 6.00 Build 0)  -->
<!DOCTYPE svg PUBLIC "-//W3C//DTD SVG 1.1//EN" "http://www.w3.org/Graphics/SVG/1.1/DTD/svg11.dtd">
<svg version="1.1" id="Capa_1" xmlns="http://www.w3.org/2000/svg" xmlns:xlink="http://www.w3.org/1999/xlink" x="0px" y="0px"
	 width="612px" height="792px" viewBox="0 0 612 792" enable-background="new 0 0 612 792" xml:space="preserve">
<g>
	<path fill="#FFFFFF" d="M519.417,435.914c-10.198-60.751-54.781-72.519-74.141-74.732c-13.75-18.502-33.649-28.626-56.526-28.626
		c-5.489,0-10.644,0.577-15.273,1.436c-13.573-15.634-32.623-24.08-53.862-24.08c-0.431,0-1.866,0.004-1.866,0.01V291.35
		c30.908-19.403,51.273-53.44,51.273-92.142c0-60.221-48.702-109.212-108.921-109.212s-109.54,48.995-109.54,109.216
		c0,38.431,20.884,72.264,49.733,91.734v90.405l-0.884-2.085c-11.103-18.061-28.719-28.407-48.812-28.409
		c-21.65-0.002-42.409,12.223-53.066,31.14c-10.182,18.071-9.607,39.121,1.444,57.881l128.462,246.02
		C232.56,695.703,242.649,702,253.712,702h180.833c15.615,0,28.599-12.415,29.555-28.004l4.204-68.542
		C513.157,536.418,527.982,486.955,519.417,435.914z M175.432,199.212c0-46.584,38.138-84.484,84.722-84.484
		c46.583,0,84.023,37.9,84.023,84.484c0,23.887-9.944,45.47-26.43,60.852v-26.331c0-6.285-1.734-17.872-1.734-17.872
		c1.568-5.279,2.594-10.861,2.594-16.65c0-32.246-26.052-58.387-58.3-58.387c-32.245,0-58.342,26.141-58.342,58.387
		c0,5.292,0.75,10.413,2.071,15.288c-0.035,0.107-0.41,0.208-0.445,0.313c-1.873,5.891-3.295,12.238-3.295,18.92v25.725
		C185.869,244.119,175.432,222.781,175.432,199.212z M444.745,596.184c-0.47,0.711-0.75,1.539-0.804,2.391l-4.525,73.905
		c-0.156,2.576-2.291,4.791-4.873,4.791H253.71c-1.819,0-3.486-1.218-4.327-2.829L120.626,427.91
		c-16.341-26.965,6.688-52.277,30.204-52.275c10.404,0,20.907,4.921,28.134,16.848l16.472,25.294
		c3.406,5.234,8.125,7.57,13.266,7.57c8.463,0,16.316-6.362,16.316-16.644v-174.97c0-22.739,16.947-34.107,34-34.107
		c17.054,0,34,11.368,34,34.107v99.472c0,2.773,2.846,4.896,5.434,4.896c0.486,0,1.273-0.076,1.772-0.235
		c4.762-1.533,11.939-3.223,19.821-3.223c13.536,0,29.642,4.991,40.918,24.333c0.951,1.632,2.701,2.601,4.494,2.601
		c0.572,0,1.174-0.101,1.741-0.309c4.535-1.669,12.462-3.981,21.541-3.981c12.638,0,27.523,4.484,38.624,21.43
		c2.648,4.043,7.132,6.489,11.954,6.763c15.326,0.87,47.943,8.263,55.71,54.528C502.485,484.429,489.635,528.194,444.745,596.184z"
		/>
</g>
</svg>
