<?xml version="1.0" encoding="utf-8"?>
<!-- Generator: Adobe Illustrator 16.0.0, SVG Export Plug-In . SVG Version: 6.00 Build 0)  -->
<!DOCTYPE svg PUBLIC "-//W3C//DTD SVG 1.1//EN" "http://www.w3.org/Graphics/SVG/1.1/DTD/svg11.dtd">
<svg version="1.1" id="Capa_1" xmlns="http://www.w3.org/2000/svg" xmlns:xlink="http://www.w3.org/1999/xlink" x="0px" y="0px"
	 width="612px" height="792px" viewBox="0 0 612 792" enable-background="new 0 0 612 792" xml:space="preserve">
<path fill="#FFFFFF" d="M606.786,150.47l-55.065-55.061c-5.615-5.613-14.721-5.615-20.336,0.002c-5.615,5.615-5.615,14.72,0,20.336
	l29.206,29.203H422.787c-7.942,0-14.38,6.44-14.38,14.38s6.438,14.38,14.38,14.38h140.428l-30.414,30.416
	c-5.617,5.615-5.617,14.72,0.003,20.335c2.808,2.807,6.487,4.211,10.166,4.211c3.681,0,7.36-1.404,10.17-4.213l53.651-53.654
	C612.404,165.193,612.404,156.088,606.786,150.47z"/>
<path fill="#FFFFFF" d="M562.545,320.628c-15.227-10.179-31.042-14.097-43.385-15.417c-15.911-21.287-38.813-32.909-65.211-32.909
	c-5.793,0-11.69,0.554-17.615,1.654c-15.667-17.906-37.199-27.663-61.451-27.663c-0.447,0-0.893,0.005-1.344,0.012l-0.105-88.308
	c-0.022-20.285-7.827-38.371-21.968-50.927C339.072,96.061,322.699,90,305.359,90c-18.577,0-36.408,7.185-48.926,19.715
	c-12.556,12.575-19.183,29.326-19.159,48.449l0.156,127.445l0.098,80.878c-18.188,9.726-30.764,25.117-36.592,44.938
	c-8.98,30.531-1.824,69.854,21.879,120.214c15.6,33.14,34.325,62.135,43.291,75.354l3.974,52.895
	C271.856,683.503,291.798,702,315.478,702l188.492-0.232c22.74-0.028,42.122-17.053,45.082-39.601l7.321-55.753
	c44.501-69.774,60.822-142.079,48.501-214.936C598.169,351.824,578.154,331.061,562.545,320.628z M530.786,593.033
	c-1.354,2.095-2.25,4.468-2.573,6.939l-7.677,58.455c-1.093,8.338-8.194,14.063-16.604,14.07l-188.433-0.28
	c-0.007,0-0.015,0-0.021,0c-8.771,0-16.061-6.248-16.72-14.998l-4.216-55.847c-0.225-2.963-1.22-5.666-2.905-8.115
	c-17.249-25.063-113.554-171.231-35.564-203.834c6.208-2.596,10.231-8.645,10.222-15.372c-0.05-39.816-0.206-171.941-0.261-215.942
	c-0.034-26.236,19.646-39.36,39.325-39.36c19.641,0,39.285,13.09,39.315,39.279l0.122,101.35
	c0.012,9.385,7.652,16.743,16.712,16.743c0.867,0,1.75-0.065,2.64-0.206c3.331-0.525,6.946-0.863,10.735-0.863
	c14.155,0,30.671,4.74,43.325,22.272c3.143,4.353,8.175,6.737,13.396,6.737c1.465,0,2.947-0.187,4.407-0.573
	c4.961-1.311,11.171-2.428,17.938-2.428c14.787,0,32.228,5.333,45.091,25.599c2.578,4.064,6.96,6.595,11.771,6.768
	c16.994,0.613,56.44,8.06,65.707,62.847C585.106,447.058,581.15,515.189,530.786,593.033z"/>
<path fill="#FFFFFF" d="M15.427,167.403l55.065,55.061c5.616,5.613,14.721,5.615,20.336-0.002c5.615-5.615,5.615-14.72,0-20.336
	l-29.206-29.203h137.804c7.942,0,14.38-6.44,14.38-14.38c0-7.941-6.438-14.38-14.38-14.38H58.998l30.414-30.416
	c5.617-5.615,5.617-14.721-0.003-20.336c-2.807-2.807-6.487-4.211-10.166-4.211c-3.68,0-7.36,1.404-10.17,4.214l-53.651,53.654
	C9.809,152.68,9.809,161.785,15.427,167.403z"/>
</svg>
