<?xml version="1.0" encoding="utf-8"?>
<!-- Generator: Adobe Illustrator 16.0.0, SVG Export Plug-In . SVG Version: 6.00 Build 0)  -->
<!DOCTYPE svg PUBLIC "-//W3C//DTD SVG 1.1//EN" "http://www.w3.org/Graphics/SVG/1.1/DTD/svg11.dtd">
<svg version="1.1" id="Capa_1" xmlns="http://www.w3.org/2000/svg" xmlns:xlink="http://www.w3.org/1999/xlink" x="0px" y="0px"
	 width="612px" height="792px" viewBox="0 0 612 792" enable-background="new 0 0 612 792" xml:space="preserve">
<g>
	<path fill="#FFFFFF" d="M494.85,424.099c-6.003-35.492-23.913-54.073-37.883-63.41c-13.625-9.107-27.783-12.616-38.827-13.798
		c-14.242-19.049-34.736-29.45-58.36-29.45c-5.185-0.002-10.463,0.496-15.768,1.48c-12.584-14.381-29.402-22.867-48.408-24.458
		c27.52-20.767,45.344-53.728,45.344-90.781c0-62.685-50.996-113.68-113.68-113.68s-113.68,50.995-113.68,113.68
		c0,40.118,20.909,75.421,52.381,95.661l0.036,30.011l0.088,72.38c-16.28,8.702-27.534,22.479-32.75,40.215
		c-8.035,27.323-1.63,62.518,19.583,107.588c13.961,29.657,30.719,55.604,38.741,67.436l3.556,47.338
		c1.587,21.136,19.435,37.69,40.629,37.69l168.688-0.208c20.353-0.025,37.698-15.261,40.35-35.44l6.551-49.896
		C491.274,554.008,505.877,489.306,494.85,424.099z M165.865,215.29l0.064,51.321c-16.396-15.981-26.604-38.282-26.604-62.931
		c0-48.49,39.451-87.941,87.941-87.941s87.941,39.451,87.941,87.941c0,25.059-10.551,47.681-27.422,63.716l-0.063-52.252
		c-0.023-18.154-7.005-34.34-19.66-45.579c-11.093-9.852-25.75-15.278-41.264-15.278c-16.625,0-32.585,6.433-43.786,17.648
		C171.774,183.185,165.846,198.18,165.865,215.29z M428.545,604.478c-1.212,1.873-2.015,3.996-2.306,6.21l-6.868,52.312
		c-0.979,7.462-7.334,13.403-14.86,13.414l-168.638,0.568c-0.006,0-0.013,0-0.02,0c-7.85,0-14.375-6.411-14.962-14.242l-3.775-50.39
		c-0.199-2.649-1.092-5.276-2.597-7.464c-15.437-22.43-101.625-153.348-31.828-182.527c5.555-2.32,9.154-7.788,9.148-13.809
		c-0.045-35.633-0.185-153.907-0.234-193.281c-0.03-23.482,17.582-35.238,35.193-35.238c17.578,0,35.157,11.707,35.185,35.144
		l0.107,90.701c0.011,8.399,6.851,14.984,14.958,14.984c0.776,0,1.563-0.06,2.359-0.187c2.981-0.47,6.22-0.772,9.609-0.772
		c12.67,0,27.45,4.243,38.775,19.933c2.814,3.895,7.314,6.029,11.988,6.029c1.311,0,2.638-0.169,3.944-0.513
		c4.439-1.175,9.997-2.175,16.053-2.172c13.231,0,28.842,4.772,40.354,22.91c2.309,3.635,6.229,5.902,10.534,6.057
		c15.207,0.549,50.512,7.211,58.805,56.245C477.156,473.839,473.617,534.812,428.545,604.478z"/>
</g>
</svg>
